<?xml version="1.0" encoding="UTF-8"?>
<svg version="1.1" xmlns="http://www.w3.org/2000/svg" width="1024" height="1024">
<path d="M0 0 C16.28515996 17.13684028 18.40624067 36.47328945 17.89501953 59.06347656 C17.50929364 67.53905614 16.52818483 77.06167348 11.75 84.25 C8.96484375 85.24609375 8.96484375 85.24609375 5.6875 85.6875 C-2.69115476 87.34461172 -8.28735821 90.19926069 -13.3984375 97.1875 C-17.32858478 103.69257136 -20.16410681 110.38955967 -22.8125 117.5 C-26.56750036 127.55089131 -30.5634243 135.73605817 -40.3828125 141.00390625 C-49.3439311 144.89845235 -58.51180564 146.85252268 -68.25 147.25 C-65.42760198 144.17759936 -62.7830604 142.30046459 -59.0625 140.4375 C-49.81826654 135.5253439 -42.28153552 130.03486521 -37.9375 120.3125 C-36.83020764 115.38001584 -36.40004528 111.11180558 -38.5625 106.375 C-41.23125322 103.0143478 -43.61595021 101.94083398 -47.75 101.4375 C-57.95542742 100.68861252 -66.02572536 104.84754051 -74.62133789 109.84912109 C-86.90891325 116.80167186 -100.62765618 118.50093122 -114.3762207 120.45361328 C-139.59237077 124.07995362 -162.81154615 134.70347506 -178.5 155.53125 C-182.52379231 161.78249877 -186.8216908 168.9095755 -188.25 176.25 C-191.9146479 174.65103806 -194.69375586 172.36916577 -197.75 169.8125 C-201.59127389 166.59661704 -201.59127389 166.59661704 -205.59375 163.58984375 C-206.1403125 163.14769531 -206.686875 162.70554687 -207.25 162.25 C-207.25 161.59 -207.25 160.93 -207.25 160.25 C-208.14295776 159.84382446 -208.14295776 159.84382446 -209.05395508 159.42944336 C-211.22403559 158.26394487 -212.64984624 157.10807034 -214.38671875 155.37890625 C-214.95938477 154.81034912 -215.53205078 154.24179199 -216.12207031 153.65600586 C-216.72116211 153.04764893 -217.32025391 152.43929199 -217.9375 151.8125 C-218.56108398 151.18287354 -219.18466797 150.55324707 -219.82714844 149.90454102 C-224.9979861 144.62335827 -229.72756616 139.09726979 -234.25 133.25 C-235.12569805 132.14144966 -236.00202894 131.03339902 -236.87890625 129.92578125 C-243.91110571 120.96314924 -243.91110571 120.96314924 -246.41796875 116.484375 C-248.04425802 113.27790046 -248.04425802 113.27790046 -250.25 111.25 C-262.50931436 88.62459873 -267.90064683 62.80127624 -260.875 37.6875 C-260.36078149 36.1985688 -259.81991127 34.71851556 -259.25 33.25 C-258.96253906 32.47398437 -258.67507813 31.69796875 -258.37890625 30.8984375 C-256.17374524 25.42671019 -253.32883688 21.46918396 -249.25 17.25 C-248.51652344 16.45464844 -247.78304687 15.65929687 -247.02734375 14.83984375 C-232.87333041 -0.03196425 -215.33926072 -7.04113621 -195.05859375 -7.77734375 C-174.66821907 -8.00376624 -157.59251826 0.58099217 -142.5625 13.9375 C-142.04494141 14.38883301 -141.52738281 14.84016602 -140.99414062 15.30517578 C-138.84974165 17.28344913 -137.36133794 18.98278894 -136.234375 21.6875 C-136.25602548 25.23817896 -137.5133852 27.45342966 -139.1875 30.5625 C-139.75339844 31.63113281 -140.31929688 32.69976562 -140.90234375 33.80078125 C-141.34707031 34.60902344 -141.79179687 35.41726563 -142.25 36.25 C-142.91 36.25 -143.57 36.25 -144.25 36.25 C-144.36214844 36.94738281 -144.47429687 37.64476562 -144.58984375 38.36328125 C-145.32874837 41.59434937 -146.48845977 44.40088351 -147.8125 47.4375 C-149.61645094 51.2166504 -149.61645094 51.2166504 -150.25 55.25 C-149.65574219 54.26902344 -149.06148438 53.28804688 -148.44921875 52.27734375 C-129.95258072 22.0413651 -108.06130877 -6.8717221 -72.6875 -17.125 C-47.09471115 -23.28426039 -19.44159654 -18.42142281 0 0 Z M-81.9375 29.5 C-83.47770432 31.55360576 -84.09853383 32.6750751 -84.25 35.25 C-83.10213059 37.49356294 -82.0404233 39.4595767 -80.25 41.25 C-75.38575176 41.80810437 -75.38575176 41.80810437 -71.25 39.625 C-69.86918785 36.34557116 -70.10878292 34.60232517 -71.25 31.25 C-74.53092421 28.58979118 -78.07439744 26.63844255 -81.9375 29.5 Z M-59.25 32.25 C-59.69912849 35.39389944 -59.754106 37.30480125 -58.25 40.125 C-54.87193105 42.02516379 -52.08381731 41.61512546 -48.25 41.25 C-45.78056471 37.54584707 -45.78086911 35.62855495 -46.25 31.25 C-48.32691798 28.86539047 -49.65556916 28.3540254 -52.75 27.8125 C-56.14834723 28.40721076 -57.26241034 29.45265158 -59.25 32.25 Z M-33.0625 29.375 C-34.76914046 32.06969546 -35.18498241 34.06413804 -35.25 37.25 C-33.87716577 39.79002013 -33.87716577 39.79002013 -31.25 41.25 C-27.76143969 41.67841969 -25.40097604 41.91830867 -22.3125 40.125 C-20.72009717 37.31487736 -20.79680675 35.42235276 -21.25 32.25 C-22.75 29.75 -22.75 29.75 -25.25 28.25 C-28.42374516 27.79660783 -30.30655076 27.66441082 -33.0625 29.375 Z M-152.25 56.25 C-151.25 58.25 -151.25 58.25 -151.25 58.25 Z " fill="#0FA9FD" transform="translate(321.25,383.75)"/>
<path d="M0 0 C20.541637 -0.86079241 38.62940529 8.53605928 53.61328125 21.8515625 C54.13083984 22.30289551 54.64839844 22.75422852 55.18164062 23.21923828 C57.3260396 25.19751163 58.81444331 26.89685144 59.94140625 29.6015625 C59.91975577 33.15224146 58.66239605 35.36749216 56.98828125 38.4765625 C56.42238281 39.54519531 55.85648437 40.61382812 55.2734375 41.71484375 C54.82871094 42.52308594 54.38398438 43.33132813 53.92578125 44.1640625 C53.26578125 44.1640625 52.60578125 44.1640625 51.92578125 44.1640625 C51.78462891 45.12505859 51.78462891 45.12505859 51.640625 46.10546875 C50.66456191 50.28173867 49.09404012 54.13109245 47.48828125 58.1015625 C46.96463989 59.40806763 46.96463989 59.40806763 46.43041992 60.7409668 C43.72202062 67.41076362 40.76751306 73.94747797 37.73828125 80.4765625 C30.24517797 96.6904287 25.48226435 113.09759164 22.86328125 130.7890625 C22.6007959 132.48421997 22.6007959 132.48421997 22.33300781 134.21362305 C21.56775979 139.2692133 20.86433384 144.29238125 20.5078125 149.39453125 C19.85065362 158.72948285 18.23380651 164.58504906 12.8359375 172.3046875 C10.28169227 176.12822024 9.12272337 179.75033844 7.92578125 184.1640625 C4.26113335 182.56510056 1.48202539 180.28322827 -1.57421875 177.7265625 C-5.41549264 174.51067954 -5.41549264 174.51067954 -9.41796875 171.50390625 C-9.96453125 171.06175781 -10.51109375 170.61960937 -11.07421875 170.1640625 C-11.07421875 169.5040625 -11.07421875 168.8440625 -11.07421875 168.1640625 C-11.96717651 167.75788696 -11.96717651 167.75788696 -12.87817383 167.34350586 C-15.04825434 166.17800737 -16.47406499 165.02213284 -18.2109375 163.29296875 C-18.78360352 162.72441162 -19.35626953 162.15585449 -19.94628906 161.57006836 C-20.54538086 160.96171143 -21.14447266 160.35335449 -21.76171875 159.7265625 C-22.38530273 159.09693604 -23.00888672 158.46730957 -23.65136719 157.81860352 C-28.82220485 152.53742077 -33.55178491 147.01133229 -38.07421875 141.1640625 C-38.9499168 140.05551216 -39.82624769 138.94746152 -40.703125 137.83984375 C-47.73532446 128.87721174 -47.73532446 128.87721174 -50.2421875 124.3984375 C-51.86847677 121.19196296 -51.86847677 121.19196296 -54.07421875 119.1640625 C-66.33353311 96.53866123 -71.72486558 70.71533874 -64.69921875 45.6015625 C-64.18500024 44.1126313 -63.64413002 42.63257806 -63.07421875 41.1640625 C-62.78675781 40.38804687 -62.49929687 39.61203125 -62.203125 38.8125 C-59.99796399 33.34077269 -57.15305563 29.38324646 -53.07421875 25.1640625 C-52.34074219 24.36871094 -51.60726562 23.57335937 -50.8515625 22.75390625 C-36.7749439 7.96341792 -19.99574458 1.58158432 0 0 Z " fill="#25BE5F" transform="translate(125.07421875,375.8359375)"/>
<path d="M0 0 C0.33 0.66 0.66 1.32 1 2 C2.65614657 2.38218767 4.32457024 2.71395102 6 3 C6.99 3.495 6.99 3.495 8 4 C9.80962535 21.73432847 -3.32050654 40.99036813 -13.77734375 54.32421875 C-17.39079721 58.67433408 -21.11781688 62.88818683 -25 67 C-25.58394531 67.62519531 -26.16789063 68.25039063 -26.76953125 68.89453125 C-45.18104546 87.99593826 -70.27963501 100.09541383 -94.25 110.625 C-109.43816355 117.29771524 -124.92230875 124.31271425 -137.77832031 134.96240234 C-140.05686471 136.71615636 -141.95081623 138.11641224 -144.91210938 137.7878418 C-147.08331245 137.03916027 -148.98903171 136.10929519 -151 135 C-151.6911792 134.62528564 -152.3823584 134.25057129 -153.09448242 133.86450195 C-155.30678926 132.60673218 -157.46720683 131.2865336 -159.625 129.9375 C-160.40697754 129.45361816 -161.18895508 128.96973633 -161.99462891 128.47119141 C-169.22305623 123.95029403 -176.16387778 119.08993882 -183 114 C-183.80824219 113.40010254 -183.80824219 113.40010254 -184.6328125 112.78808594 C-187.19367372 110.88445058 -189.74537046 108.96949154 -192.2890625 107.04296875 C-194.02152398 105.73738179 -195.76538335 104.44669655 -197.5234375 103.17578125 C-198.62558594 102.37720703 -198.62558594 102.37720703 -199.75 101.5625 C-200.38421875 101.11003906 -201.0184375 100.65757812 -201.671875 100.19140625 C-202.11015625 99.79824219 -202.5484375 99.40507813 -203 99 C-203 98.34 -203 97.68 -203 97 C-203.5775 96.7525 -204.155 96.505 -204.75 96.25 C-207.38288682 94.7872851 -209.12450669 93.36173231 -211 91 C-210.35642562 86.57400481 -207.91220342 82.90058601 -205.75 79.0625 C-205.17572266 78.00772461 -205.17572266 78.00772461 -204.58984375 76.93164062 C-202.18480907 72.6403831 -199.68416381 69.33246742 -196 66 C-195.21238281 65.28457031 -194.42476562 64.56914063 -193.61328125 63.83203125 C-192.85402344 63.16558594 -192.09476563 62.49914062 -191.3125 61.8125 C-189.15243831 59.91382392 -187.03366988 58.03366988 -185 56 C-168.50791049 45.524338 -151.29879479 39.73662438 -132 36.875 C-129.79133055 36.54127947 -127.58297954 36.20544251 -125.375 35.8671875 C-124.41335937 35.72394043 -123.45171875 35.58069336 -122.4609375 35.43310547 C-119.87601944 35.04034412 -119.87601944 35.04034412 -117 34 C-116.505 33.01 -116.505 33.01 -116 32 C-115.13632813 32.20625 -114.27265625 32.4125 -113.3828125 32.625 C-104.34611845 33.62675823 -95.09029996 27.1467844 -87.75390625 22.453125 C-84.79119566 20.88982239 -82.28254696 20.51009363 -79 20 C-78.67 19.34 -78.34 18.68 -78 18 C-78 18.66 -78 19.32 -78 20 C-77.236875 20.0825 -76.47375 20.165 -75.6875 20.25 C-73 21 -73 21 -71.0625 22.5 C-69.3715344 26.47874259 -70.80516305 29.97709574 -72 34 C-72.66 34 -73.32 34 -74 34 C-74.25652344 34.58394531 -74.51304687 35.16789062 -74.77734375 35.76953125 C-81.31425509 47.69469538 -98.64201141 54.29218256 -111 58 C-112.33236503 58.37842597 -113.66561961 58.753743 -115 59.125 C-117.85798939 59.69771185 -117.85798939 59.69771185 -119 61 C-112.32026118 62.2723312 -102.15360983 64.07680491 -96 61 C-96 61.66 -96 62.32 -96 63 C-95.0409375 62.7525 -95.0409375 62.7525 -94.0625 62.5 C-90.02413348 61.84067485 -86.08192742 61.91996221 -82 62 C-81.67 61.34 -81.34 60.68 -81 60 C-79.68 60.33 -78.36 60.66 -77 61 C-76.67 60.01 -76.34 59.02 -76 58 C-76 58.66 -76 59.32 -76 60 C-59.76094778 55.50834726 -45.53079883 49.58149589 -33 38 C-32.35804688 37.42636719 -31.71609375 36.85273438 -31.0546875 36.26171875 C-23.97778284 29.61323657 -18.79975665 21.4201333 -13.875 13.125 C-10.16635698 6.99483124 -6.73617541 2.84992036 0 0 Z " fill="#11ABFC" transform="translate(347,472)"/>
<path d="M0 0 C1.55751736 3.11503472 0.33131864 5.53320165 -0.4375 8.875 C-3.52738547 23.48776533 -1.91754573 35.89938036 5.65625 49 C9.27373557 54.38416457 11.93846016 56.43602025 17.875 59.125 C20.69317253 60.68356071 22.46513132 62.13898331 24 65 C25.17531387 73.93267106 23.47259975 83.17823307 22 92 C37.59448953 85.93165908 37.59448953 85.93165908 50.3605957 75.3972168 C52.50739941 73.56755818 53.58287082 73.69923294 56.3671875 73.84765625 C57.24262207 73.87835205 58.11805664 73.90904785 59.02001953 73.94067383 C59.96216309 73.98087646 60.90430664 74.0210791 61.875 74.0625 C82.20668723 74.48446573 102.27833619 70.67988929 118 57 C125.73724084 49.00047981 130.33767367 38.02085275 130.3046875 26.9375 C129.82695831 22.33170066 128.31687706 18.13420826 126.77734375 13.78515625 C126 11 126 11 127 8 C127.81898266 10.20611566 128.63027543 12.4145834 129.4375 14.625 C129.88996094 15.85476563 130.34242188 17.08453125 130.80859375 18.3515625 C136.1572154 34.73062026 134.70552797 57.21714855 128.7734375 73.33203125 C127 76 127 76 124.21484375 76.99609375 C122.59255859 77.21458984 122.59255859 77.21458984 120.9375 77.4375 C112.55884524 79.09461172 106.96264179 81.94926069 101.8515625 88.9375 C97.92141522 95.44257136 95.08589319 102.13955967 92.4375 109.25 C88.68249964 119.30089131 84.6865757 127.48605817 74.8671875 132.75390625 C65.9060689 136.64845235 56.73819436 138.60252268 47 139 C49.82239802 135.92759936 52.4669396 134.05046459 56.1875 132.1875 C65.43173346 127.2753439 72.96846448 121.78486521 77.3125 112.0625 C78.41979236 107.13001584 78.84995472 102.86180558 76.6875 98.125 C74.01874678 94.7643478 71.63404979 93.69083398 67.5 93.1875 C57.29457258 92.43861252 49.22427464 96.59754051 40.62866211 101.59912109 C28.34108675 108.55167186 14.62234382 110.25093122 0.8737793 112.20361328 C-24.63241603 115.87166509 -44.00740202 126.63746075 -62 145 C-63.32829405 141.01511785 -62.57140195 137.65055018 -61.9609375 133.58984375 C-61.83820465 132.74893692 -61.7154718 131.90803009 -61.58901978 131.04164124 C-61.32520572 129.25142129 -61.05763075 127.46175221 -60.78662109 125.67260742 C-60.38464837 123.00161076 -60.00207341 120.32835682 -59.62109375 117.65429688 C-56.57249222 96.90812442 -50.56277417 77.57848604 -41.75 58.5625 C-41.40864014 57.82185303 -41.06728027 57.08120605 -40.71557617 56.31811523 C-38.24617041 51.12308521 -38.24617041 51.12308521 -36 50 C-35.31202235 48.34201659 -34.64864329 46.67376346 -34 45 C-33.07326914 43.4327149 -32.10168392 41.89133832 -31.09375 40.375 C-30.51971436 39.50979736 -29.94567871 38.64459473 -29.35424805 37.75317383 C-28.74234619 36.84462646 -28.13044434 35.9360791 -27.5 35 C-26.8706958 34.06244873 -26.2413916 33.12489746 -25.59301758 32.15893555 C-17.89380555 20.77531771 -9.74708662 9.74708662 0 0 Z " fill="#017DF0" transform="translate(206,392)"/>
<path d="M0 0 C1.3293457 0.07734375 1.3293457 0.07734375 2.68554688 0.15625 C3.59755859 0.22070312 4.50957031 0.28515625 5.44921875 0.3515625 C6.38056641 0.40828125 7.31191406 0.465 8.27148438 0.5234375 C10.56073978 0.66431476 12.84879815 0.81566079 15.13671875 0.9765625 C16.42203445 16.62987155 16.23696019 32.28492177 16.13671875 47.9765625 C16.79671875 47.9765625 17.45671875 47.9765625 18.13671875 47.9765625 C18.13671875 47.3165625 18.13671875 46.6565625 18.13671875 45.9765625 C19.640625 44.7578125 19.640625 44.7578125 21.69921875 43.4765625 C22.36050781 43.05375 23.02179687 42.6309375 23.703125 42.1953125 C32.18891528 37.94560694 43.54926417 37.15810821 52.63671875 40.0390625 C59.27553083 43.14198554 63.70782164 48.67586252 66.290802 55.42582703 C69.16120363 64.08109395 69.41500971 72.82466037 69.33203125 81.86328125 C69.32920135 83.04630325 69.32637146 84.22932526 69.32345581 85.44819641 C69.31235675 89.18692605 69.2872715 92.92540658 69.26171875 96.6640625 C69.25167567 99.21549131 69.24255215 101.76692391 69.234375 104.31835938 C69.21245116 110.53784387 69.17907742 116.75718538 69.13671875 122.9765625 C65.77934098 124.65525139 62.01244734 124.11897349 58.32421875 124.1015625 C57.51662109 124.10542969 56.70902344 124.10929688 55.87695312 124.11328125 C51.83283923 124.10665698 48.08229049 123.9849642 44.13671875 122.9765625 C43.17755197 117.40918419 43.04796938 112.09735864 43.14453125 106.45703125 C43.16205131 104.61133366 43.17895922 102.76563017 43.1953125 100.91992188 C43.22618259 98.04336862 43.26166942 95.16711784 43.30810547 92.29077148 C43.35082033 89.49198828 43.37398756 86.69355384 43.39453125 83.89453125 C43.41315216 83.04940475 43.43177307 82.20427826 43.45095825 81.33354187 C43.4764796 75.29342827 42.70322188 69.5076576 40.13671875 63.9765625 C35.53830024 60.75766954 31.58152485 60.6152048 26.21875 61.46484375 C22.68119233 62.33429976 20.05041756 63.52341052 18.078125 66.66015625 C16.86162224 69.65345971 16.4592577 72.52985573 16.01171875 75.7265625 C15.84414063 76.89703125 15.6765625 78.0675 15.50390625 79.2734375 C15.38273438 80.16546875 15.2615625 81.0575 15.13671875 81.9765625 C15.79671875 82.3065625 16.45671875 82.6365625 17.13671875 82.9765625 C16.97155762 83.80704102 16.80639648 84.63751953 16.63623047 85.49316406 C16.09494111 89.26790331 16.06367339 92.91235022 16.14453125 96.7109375 C16.1620274 98.18619128 16.17893757 99.6614521 16.1953125 101.13671875 C16.22641044 103.44339641 16.26217985 105.74971945 16.30810547 108.05615234 C16.35028189 110.29529368 16.37381974 112.53400908 16.39453125 114.7734375 C16.41315216 115.46612732 16.43177307 116.15881714 16.45095825 116.87249756 C16.46142578 118.81542969 16.46142578 118.81542969 16.13671875 121.9765625 C12.92856987 124.11532842 12.04901145 124.23232678 8.35546875 124.2421875 C7.43121094 124.24476563 6.50695312 124.24734375 5.5546875 124.25 C4.59175781 124.24226562 3.62882813 124.23453125 2.63671875 124.2265625 C1.19232422 124.23816406 1.19232422 124.23816406 -0.28125 124.25 C-1.20550781 124.24742187 -2.12976563 124.24484375 -3.08203125 124.2421875 C-3.92701172 124.23993164 -4.77199219 124.23767578 -5.64257812 124.23535156 C-7.86328125 123.9765625 -7.86328125 123.9765625 -10.86328125 121.9765625 C-11.23077393 119.05749512 -11.23077393 119.05749512 -11.21972656 115.25585938 C-11.22174828 114.56152235 -11.22376999 113.86718533 -11.22585297 113.15180779 C-11.22882467 110.83271858 -11.21021159 108.51431973 -11.19140625 106.1953125 C-11.18867963 104.56182 -11.18717627 102.92832506 -11.18682861 101.29483032 C-11.18182195 96.92364681 -11.1576228 92.55276491 -11.12918091 88.18167877 C-11.10808423 84.59235786 -11.09800121 81.00304126 -11.08789062 77.41367531 C-11.01466954 52.26128425 -10.74484425 27.11517541 -9.86328125 1.9765625 C-6.36499257 0.38123397 -3.83232708 -0.24724691 0 0 Z " fill="#006AFC" transform="translate(854.86328125,421.0234375)"/>
<path d="M0 0 C8.90130718 8.23546137 13.1871467 18.20803768 14.21484375 30.1640625 C14.55272746 41.48992453 12.15122631 51.43993731 5.9375 60.9375 C5.380625 61.80375 4.82375 62.67 4.25 63.5625 C-5.0358834 73.09935322 -16.2817718 77.45470523 -29.44140625 78.03125 C-42.05926609 77.70457402 -52.0184067 73.74732807 -61.3125 65.3125 C-67.43931622 58.8508173 -71.01013435 50.52011998 -73.0625 41.9375 C-73.3925 41.2775 -73.7225 40.6175 -74.0625 39.9375 C-73.98228832 25.19860323 -70.96039165 12.3349112 -60.9375 1.1875 C-44.38504088 -14.26876977 -17.25118748 -13.84721754 0 0 Z M-42.8125 17.5625 C-47.74996659 24.23298467 -48.59189628 30.94958062 -47.640625 39.06640625 C-46.47427715 44.85874187 -43.947251 50.40962428 -39.0625 53.9375 C-31.93940446 56.47283909 -25.66094065 56.63487767 -18.75 53.375 C-13.83430029 48.91657468 -11.39081141 43.0035106 -10.859375 36.421875 C-10.72962453 28.85309775 -11.86719714 23.5963381 -15.75 17.125 C-19.79956253 13.29433274 -24.15696109 12.13808304 -29.625 11.5625 C-35.16238798 12.16657869 -38.77134617 13.70503498 -42.8125 17.5625 Z " fill="#0065F4" transform="translate(655.0625,469.0625)"/>
<path d="M0 0 C0.66 0 1.32 0 2 0 C2 0.99 2 1.98 2 3 C3.3303125 2.7215625 3.3303125 2.7215625 4.6875 2.4375 C10.44094964 1.58161493 16.24757059 2.43773246 22 3 C22.33 2.01 22.66 1.02 23 0 C23 0.99 23 1.98 23 3 C23.66 3 24.32 3 25 3 C25.33 30.39 25.66 57.78 26 86 C18.08 86 10.16 86 2 86 C1.505 81.545 1.505 81.545 1 77 C0.071875 78.0725 -0.85625 79.145 -1.8125 80.25 C-8.12440092 86.4735343 -15.36231364 88.20684155 -24.0625 88.5 C-31.97167523 88.23145188 -38.8187675 86.75573377 -44.375 80.8125 C-51.98177686 70.74914365 -52.15936461 60.31590309 -52.203125 48.171875 C-52.20882507 46.94591614 -52.21452515 45.71995728 -52.22039795 44.45684814 C-52.22981591 41.87488664 -52.23636914 39.29291329 -52.24023438 36.7109375 C-52.25000051 32.74979123 -52.28107887 28.789151 -52.3125 24.828125 C-52.31902471 22.31771141 -52.32427727 19.80729412 -52.328125 17.296875 C-52.3404718 16.1093866 -52.3528186 14.92189819 -52.36553955 13.69842529 C-52.36253845 12.60008362 -52.35953735 11.50174194 -52.35644531 10.37011719 C-52.36009094 9.40305847 -52.36373657 8.43599976 -52.36749268 7.43963623 C-52 5 -52 5 -50.62522888 3.17991638 C-48.30542723 1.49574008 -46.72686962 1.74569037 -43.89453125 1.92578125 C-42.91162109 1.98056641 -41.92871094 2.03535156 -40.91601562 2.09179688 C-39.89185547 2.16462891 -38.86769531 2.23746094 -37.8125 2.3125 C-36.25885742 2.4043457 -36.25885742 2.4043457 -34.67382812 2.49804688 C-32.11468043 2.65135987 -29.55732955 2.8192107 -27 3 C-26.05605206 5.83184381 -25.88739195 7.49488396 -25.91821289 10.42041016 C-25.9247438 11.31208893 -25.93127472 12.2037677 -25.93800354 13.12246704 C-25.94943893 14.08494354 -25.96087433 15.04742004 -25.97265625 16.0390625 C-25.98531134 18.08463367 -25.99767164 20.13020668 -26.00976562 22.17578125 C-26.03449681 25.39475259 -26.06238141 28.61362774 -26.09594727 31.83251953 C-26.12635805 34.94303971 -26.14399502 38.05344002 -26.16015625 41.1640625 C-26.17361588 42.11439362 -26.1870755 43.06472473 -26.20094299 44.04385376 C-26.45077088 53.9646644 -26.45077088 53.9646644 -22.55140686 62.68814087 C-19.30787014 65.43085355 -16.42605381 65.33139272 -12.32421875 65.28515625 C-8.74920647 64.8465413 -6.6668747 63.34164608 -4 61 C-2.00381141 57.84203931 -1.73755833 55.33867496 -1.69702148 51.63647461 C-1.68037949 50.5653392 -1.66373749 49.4942038 -1.64659119 48.39060974 C-1.63817703 47.23948196 -1.62976288 46.08835419 -1.62109375 44.90234375 C-1.60409927 43.71653214 -1.5871048 42.53072052 -1.56959534 41.30897522 C-1.51644124 37.51853766 -1.47615765 33.72811098 -1.4375 29.9375 C-1.3935804 26.14337449 -1.34688145 22.3493341 -1.29469299 18.55531311 C-1.26272783 16.19375489 -1.2358403 13.83212152 -1.21446228 11.47044373 C-1.20097244 10.40246048 -1.1874826 9.33447723 -1.17358398 8.23413086 C-1.15931618 6.82326454 -1.15931618 6.82326454 -1.14476013 5.38389587 C-1 3 -1 3 0 0 Z " fill="#0064F3" transform="translate(728,458)"/>
<path d="M0 0 C5.5580966 4.2826597 8.65029108 9.83454582 10.04296875 16.6796875 C10.12993931 18.75731389 10.16065302 20.83755043 10.15649414 22.91699219 C10.15638084 24.80850006 10.15638084 24.80850006 10.15626526 26.73822021 C10.15115903 28.10933471 10.14594305 29.48044881 10.140625 30.8515625 C10.13875903 32.25832061 10.13733597 33.66507938 10.13633728 35.07183838 C10.13252619 38.76749477 10.12270795 42.46311163 10.1116333 46.15875244 C10.10138889 49.93265244 10.09683317 53.70655885 10.09179688 57.48046875 C10.08108439 64.88022632 10.06402491 72.27995136 10.04296875 79.6796875 C6.25170277 79.87597164 2.45994703 80.06022646 -1.33203125 80.2421875 C-2.95238281 80.32629883 -2.95238281 80.32629883 -4.60546875 80.41210938 C-5.63671875 80.46044922 -6.66796875 80.50878906 -7.73046875 80.55859375 C-9.16011963 80.62929077 -9.16011963 80.62929077 -10.61865234 80.70141602 C-12.95703125 80.6796875 -12.95703125 80.6796875 -14.95703125 79.6796875 C-14.96289749 79.05852051 -14.96876373 78.43735352 -14.97480774 77.79736328 C-15.03894883 71.30781143 -15.12342151 64.81874602 -15.21948242 58.32958984 C-15.25265101 55.91070994 -15.28070783 53.49175415 -15.3034668 51.07275391 C-15.3371606 47.5872374 -15.38948565 44.10241135 -15.4453125 40.6171875 C-15.45170242 39.54291504 -15.45809235 38.46864258 -15.4646759 37.36181641 C-15.59594501 30.59446143 -15.94585878 24.01348559 -20.70703125 18.7421875 C-25.57034365 16.44562331 -29.62645396 16.35540597 -34.70703125 17.8671875 C-38.17966566 19.16056664 -40.24216924 20.24996349 -41.95703125 23.6796875 C-42.9552803 26.67443464 -43.11027157 28.75314084 -43.16235352 31.88549805 C-43.18229874 32.94637131 -43.20224396 34.00724457 -43.22279358 35.1002655 C-43.23950607 36.24409195 -43.25621857 37.3879184 -43.2734375 38.56640625 C-43.2942186 39.73855179 -43.31499969 40.91069733 -43.33641052 42.11836243 C-43.40186943 45.86791036 -43.46077421 49.61752913 -43.51953125 53.3671875 C-43.56271993 55.90690841 -43.60633433 58.44662212 -43.65039062 60.98632812 C-43.75754711 67.21737272 -43.85932045 73.44848801 -43.95703125 79.6796875 C-46.06008839 79.87924767 -48.16459172 80.06357287 -50.26953125 80.2421875 C-51.44128906 80.34660156 -52.61304688 80.45101562 -53.8203125 80.55859375 C-58.87221977 80.70647772 -63.92371597 80.13726162 -68.95703125 79.6796875 C-68.95703125 52.2896875 -68.95703125 24.8996875 -68.95703125 -3.3203125 C-52.70703125 -4.48102679 -52.70703125 -4.48102679 -44.95703125 -4.3203125 C-44.01388998 -0.90421025 -43.87638008 2.13103614 -43.95703125 5.6796875 C-43.50328125 4.9578125 -43.04953125 4.2359375 -42.58203125 3.4921875 C-31.75084989 -8.11264967 -12.60900035 -8.50667089 0 0 Z " fill="#30C25A" transform="translate(500.95703125,464.3203125)"/>
<path d="M0 0 C1 1 1 1 1.11352539 3.13305664 C1.10567017 4.50772095 1.10567017 4.50772095 1.09765625 5.91015625 C1.09515869 6.800979 1.09266113 7.69180176 1.09008789 8.60961914 C1.08098389 9.74906982 1.07187988 10.88852051 1.0625 12.0625 C1.041875 15.671875 1.02125 19.28125 1 23 C-9.56 23 -20.12 23 -31 23 C-31 55.67 -31 88.34 -31 122 C-39.58 122 -48.16 122 -57 122 C-57 89.33 -57 56.66 -57 23 C-67.89 23 -78.78 23 -90 23 C-90 15.41 -90 7.82 -90 0 C-14.06848722 -1.62473543 -14.06848722 -1.62473543 0 0 Z " fill="#0065E7" transform="translate(600,422)"/>
<path d="M0 0 C0.92296875 0.32226562 1.8459375 0.64453125 2.796875 0.9765625 C5.45240525 3.41550695 5.36409152 4.10662326 5.5234375 7.59765625 C5.49951458 9.41978566 5.4490052 11.2417169 5.375 13.0625 C5.36082031 13.98611328 5.34664062 14.90972656 5.33203125 15.86132812 C5.18364448 22.63271104 5.18364448 22.63271104 4 25 C-0.1931279 24.0323551 -4.30571779 22.80794952 -8.1953125 20.953125 C-11.79304897 19.73049589 -15.18274064 19.67006843 -18.9375 19.6875 C-19.62779297 19.67138672 -20.31808594 19.65527344 -21.02929688 19.63867188 C-25.79993111 19.63414995 -28.89670598 20.64075526 -33 23 C-33.99 23.33 -34.98 23.66 -36 24 C-37.13545562 26.29534258 -37.13545562 26.29534258 -38 29 C-38.34160156 29.763125 -38.68320312 30.52625 -39.03515625 31.3125 C-41.3047974 37.63441543 -40.83912048 44.82154343 -38.3125 51 C-35.81820868 55.82287797 -33.02268468 58.15721472 -28 60.25 C-19.12414455 62.37248717 -10.67823094 61.47101719 -2.33984375 57.97265625 C-0.21771571 57.09050286 1.73765083 56.39805253 4 56 C6.3209256 58.3209256 5.32762762 63.76134256 5.375 66.875 C5.43107422 68.26138672 5.43107422 68.26138672 5.48828125 69.67578125 C5.52137461 72.20926195 5.48718047 74.51292199 5 77 C2.75390625 79.03125 2.75390625 79.03125 0 80 C-0.74121094 80.30164063 -1.48242188 80.60328125 -2.24609375 80.9140625 C-2.96925781 81.14867187 -3.69242188 81.38328125 -4.4375 81.625 C-5.15808594 81.86476563 -5.87867188 82.10453125 -6.62109375 82.3515625 C-12.90260458 84.06376414 -18.91345974 84.12241442 -25.375 84.0625 C-26.30183594 84.05798828 -27.22867188 84.05347656 -28.18359375 84.04882812 C-30.45579709 84.03711574 -32.72786388 84.02071372 -35 84 C-35 83.34 -35 82.68 -35 82 C-37.97 81.67 -40.94 81.34 -44 81 C-44 80.34 -44 79.68 -44 79 C-45.08474609 78.62488281 -45.08474609 78.62488281 -46.19140625 78.2421875 C-54.69406205 74.48162485 -60.16978206 67.26270388 -63.8828125 58.9765625 C-68.6103771 46.38074353 -68.37331275 32.79862514 -62.86328125 20.453125 C-57.04216467 9.5086913 -49.04915263 3.14652552 -37.5 -1.4375 C-25.87175611 -4.95019868 -11.30557011 -4.38858392 0 0 Z " fill="#0068FA" transform="translate(831,463)"/>
<path d="M0 0 C0 27.39 0 54.78 0 83 C-7.88871182 84.12695883 -7.88871182 84.12695883 -11.078125 84.1328125 C-11.76390625 84.13410156 -12.4496875 84.13539063 -13.15625 84.13671875 C-13.8471875 84.13285156 -14.538125 84.12898437 -15.25 84.125 C-15.95640625 84.12886719 -16.6628125 84.13273438 -17.390625 84.13671875 C-20.52989304 84.13077317 -23.00025549 83.99991484 -26 83 C-26 55.61 -26 28.22 -26 0 C-20 -1 -20 -1 0 0 Z " fill="#31C359" transform="translate(418,461)"/>
<path d="M0 0 C4.61341775 1.76684084 6.80727567 4.61455135 9 9 C9.84565744 13.76643286 9.48651295 17.06172503 7.25 21.375 C3.2649683 26.02420365 0.49765025 27.62828793 -5.6171875 28.1328125 C-10.56057904 27.8572792 -14.38562262 25.510224 -17.9375 22.1875 C-20.02422697 17.89129742 -20.15683354 14.11743896 -19.5 9.4375 C-15.60198254 0.50454333 -9.32663468 -1.43152997 0 0 Z " fill="#2FBC57" transform="translate(410,422)"/>
<path d="M0 0 C1.3293457 0.07734375 1.3293457 0.07734375 2.68554688 0.15625 C3.59755859 0.22070312 4.50957031 0.28515625 5.44921875 0.3515625 C6.38056641 0.40828125 7.31191406 0.465 8.27148438 0.5234375 C10.56073978 0.66431476 12.84879815 0.81566079 15.13671875 0.9765625 C16.00940431 11.74487896 16.27067493 22.48726579 16.32421875 33.2890625 C16.33710937 34.57063232 16.35 35.85220215 16.36328125 37.17260742 C16.36521484 38.9878894 16.36521484 38.9878894 16.3671875 40.83984375 C16.37129639 41.92563721 16.37540527 43.01143066 16.37963867 44.13012695 C16.13671875 46.9765625 16.13671875 46.9765625 14.13671875 50.9765625 C14.13671875 34.8065625 14.13671875 18.6365625 14.13671875 1.9765625 C6.87671875 1.9765625 -0.38328125 1.9765625 -7.86328125 1.9765625 C-7.86328125 41.5765625 -7.86328125 81.1765625 -7.86328125 121.9765625 C-0.60328125 121.9765625 6.65671875 121.9765625 14.13671875 121.9765625 C14.10191406 118.36460937 14.06710937 114.75265625 14.03125 111.03125 C14.00784224 107.52637523 13.98963254 104.02150922 13.97192383 100.51660156 C13.95685341 98.08394461 13.93639352 95.65131476 13.91040039 93.21875 C13.87394135 89.71868189 13.85697455 86.2189736 13.84375 82.71875 C13.82826614 81.63415497 13.81278229 80.54955994 13.79682922 79.43209839 C13.79557059 73.76302532 14.0002671 69.77348855 17.13671875 64.9765625 C18.575019 67.85316299 17.48800714 69.82771283 16.68359375 72.80078125 C15.91936256 75.84132964 15.52535566 78.86746719 15.13671875 81.9765625 C15.79671875 82.3065625 16.45671875 82.6365625 17.13671875 82.9765625 C16.97155762 83.80704102 16.80639648 84.63751953 16.63623047 85.49316406 C16.09494111 89.26790331 16.06367339 92.91235022 16.14453125 96.7109375 C16.1620274 98.18619128 16.17893757 99.6614521 16.1953125 101.13671875 C16.22641044 103.44339641 16.26217985 105.74971945 16.30810547 108.05615234 C16.35028189 110.29529368 16.37381974 112.53400908 16.39453125 114.7734375 C16.41315216 115.46612732 16.43177307 116.15881714 16.45095825 116.87249756 C16.46142578 118.81542969 16.46142578 118.81542969 16.13671875 121.9765625 C12.92856987 124.11532842 12.04901145 124.23232678 8.35546875 124.2421875 C7.43121094 124.24476563 6.50695312 124.24734375 5.5546875 124.25 C4.59175781 124.24226562 3.62882813 124.23453125 2.63671875 124.2265625 C1.19232422 124.23816406 1.19232422 124.23816406 -0.28125 124.25 C-1.20550781 124.24742187 -2.12976563 124.24484375 -3.08203125 124.2421875 C-3.92701172 124.23993164 -4.77199219 124.23767578 -5.64257812 124.23535156 C-7.86328125 123.9765625 -7.86328125 123.9765625 -10.86328125 121.9765625 C-11.23077393 119.05749512 -11.23077393 119.05749512 -11.21972656 115.25585938 C-11.22174828 114.56152235 -11.22376999 113.86718533 -11.22585297 113.15180779 C-11.22882467 110.83271858 -11.21021159 108.51431973 -11.19140625 106.1953125 C-11.18867963 104.56182 -11.18717627 102.92832506 -11.18682861 101.29483032 C-11.18182195 96.92364681 -11.1576228 92.55276491 -11.12918091 88.18167877 C-11.10808423 84.59235786 -11.09800121 81.00304126 -11.08789062 77.41367531 C-11.01466954 52.26128425 -10.74484425 27.11517541 -9.86328125 1.9765625 C-6.36499257 0.38123397 -3.83232708 -0.24724691 0 0 Z " fill="#0044BF" transform="translate(854.86328125,421.0234375)"/>
<path d="M0 0 C1.98 0 3.96 0 6 0 C5.42728913 15.17683818 -6.61490985 27.05371647 -17 37 C-17.66 37.66 -18.32 38.32 -19 39 C-21.2386565 41.2386565 -23.06570533 41.8996395 -26 43 C-26.99 43.495 -26.99 43.495 -28 44 C-27.3567124 40.32897212 -25.74194599 37.82946936 -23.6875 34.75 C-20.78006228 30.28479401 -18.25298595 25.82181105 -16 21 C-13.21428571 15.10714286 -13.21428571 15.10714286 -11 14 C-10.690625 12.948125 -10.690625 12.948125 -10.375 11.875 C-8.57331517 8.10784082 -5.97815683 6.16120928 -2.77734375 3.55078125 C-0.89500097 2.10661042 -0.89500097 2.10661042 0 0 Z " fill="#15ACFA" transform="translate(324,474)"/>
<path d="M0 0 C2 1 2 1 2.81640625 2.78515625 C3.06261719 3.53667969 3.30882812 4.28820312 3.5625 5.0625 C3.81128906 5.79597656 4.06007813 6.52945312 4.31640625 7.28515625 C6.255474 14.98602531 6.13337729 22.70459193 6.09765625 30.59375 C6.0962413 31.78101685 6.09482635 32.96828369 6.09336853 34.19152832 C6.08779811 37.96104516 6.07525105 41.73050129 6.0625 45.5 C6.05748118 48.06510331 6.05291894 50.63020755 6.04882812 53.1953125 C6.03783836 59.46356217 6.02112981 65.73177675 6 72 C2.64262223 73.67868889 -1.12427141 73.14241099 -4.8125 73.125 C-5.62009766 73.12886719 -6.42769531 73.13273438 -7.25976562 73.13671875 C-11.30387952 73.13009448 -15.05442826 73.0084017 -19 72 C-19.95406076 66.43783982 -20.10305 61.11570044 -20.02734375 55.48046875 C-20.01469495 53.63476752 -20.00233418 51.78906429 -19.99023438 49.94335938 C-19.96549021 47.06691093 -19.93753573 44.19056945 -19.90405273 41.31420898 C-19.87357673 38.51545594 -19.85599326 35.71683626 -19.83984375 32.91796875 C-19.82638412 32.07284225 -19.8129245 31.22771576 -19.79905701 30.35697937 C-19.77427981 24.3618944 -20.63032914 18.83180815 -22 13 C-20 14 -20 14 -18.88720703 16.32861328 C-17.63914378 21.4932735 -17.75430463 26.44844743 -17.8046875 31.7421875 C-17.80893234 33.42745041 -17.80893234 33.42745041 -17.81326294 35.14675903 C-17.82442697 38.72294927 -17.84952499 42.2988859 -17.875 45.875 C-17.88503467 48.30468387 -17.89415967 50.73437169 -17.90234375 53.1640625 C-17.92264938 59.1095505 -17.96180616 65.05449251 -18 71 C-10.74 71 -3.48 71 4 71 C3.91413416 63.72339378 3.82019922 56.44699587 3.71247292 49.17067814 C3.66275275 45.79115378 3.61642305 42.41165705 3.578125 39.03198242 C3.53224299 35.13702953 3.47428606 31.24241063 3.4140625 27.34765625 C3.40251129 26.1473024 3.39096008 24.94694855 3.37905884 23.71022034 C3.26506302 17.16695854 2.66313114 11.3315202 1 5 C0.66013333 3.33465333 0.32297514 1.66870487 0 0 Z " fill="#0243B4" transform="translate(918,472)"/>
<path d="M0 0 C0.92296875 0.32226562 1.8459375 0.64453125 2.796875 0.9765625 C5.45240525 3.41550695 5.36409152 4.10662326 5.5234375 7.59765625 C5.49951458 9.41978566 5.4490052 11.2417169 5.375 13.0625 C5.36082031 13.98611328 5.34664062 14.90972656 5.33203125 15.86132812 C5.18364448 22.63271104 5.18364448 22.63271104 4 25 C-0.1931279 24.0323551 -4.30571779 22.80794952 -8.1953125 20.953125 C-11.79304897 19.73049589 -15.18274064 19.67006843 -18.9375 19.6875 C-19.62779297 19.67138672 -20.31808594 19.65527344 -21.02929688 19.63867188 C-25.81244279 19.63413809 -28.85695406 20.7143895 -33 23 C-33.99 23 -34.98 23 -36 23 C-30.21669359 17.74244872 -24.30217788 16.57967913 -16.6875 16.7421875 C-9.47276617 17.43429859 -3.45494213 19.77252894 3 23 C3 16.4 3 9.8 3 3 C-12.58668701 -1.26778335 -28.99533431 -3.56495666 -44 4 C-46.83459483 6.49958655 -46.83459483 6.49958655 -49 9 C-51.625 10.1875 -51.625 10.1875 -54 11 C-54.99 11.66 -55.98 12.32 -57 13 C-54.49002542 6.77962822 -48.09009807 3.4702176 -42.2578125 0.6953125 C-29.17318531 -4.62395731 -13.303941 -5.16430937 0 0 Z " fill="#0148C0" transform="translate(831,463)"/>
<path d="M0 0 C0.99 0.99 1.98 1.98 3 3 C1.56183813 6.92618189 -0.31720112 10.31407809 -2.5 13.875 C-5.09662119 18.24768849 -6.98301023 22.02805001 -8 27 C-11.6646479 25.40103806 -14.44375586 23.11916577 -17.5 20.5625 C-21.34127389 17.34661704 -21.34127389 17.34661704 -25.34375 14.33984375 C-25.8903125 13.89769531 -26.436875 13.45554687 -27 13 C-27 12.34 -27 11.68 -27 11 C-23.30010206 12.67955893 -20.73307356 14.91630208 -17.78125 17.66015625 C-15.81609421 19.13833265 -14.42236492 19.65465266 -12 20 C-9.76622169 19.42481768 -9.76622169 19.42481768 -8 18 C-7.40929986 16.05396726 -7.40929986 16.05396726 -7 14 C-6 13 -5 12 -4 11 C-3.31246699 9.34183216 -2.64438717 7.67540664 -2 6 C-1.34 5.34 -0.68 4.68 0 4 C0 2.68 0 1.36 0 0 Z " fill="#15996E" transform="translate(141,533)"/>
<path d="M0 0 C1.010625 0.78375 2.02125 1.5675 3.0625 2.375 C10.36863841 7.5023695 18.30397483 7.85849261 27 7 C30.00167184 6.17593854 32.7919253 5.17601931 35.66015625 3.97265625 C37.78228429 3.09050286 39.73765083 2.39805253 42 2 C44.30009773 4.30009773 43.18537365 9.84790666 43.1875 12.9375 C43.19974609 13.87013672 43.21199219 14.80277344 43.22460938 15.76367188 C43.22654297 16.65505859 43.22847656 17.54644531 43.23046875 18.46484375 C43.23457764 19.285896 43.23868652 20.10694824 43.24291992 20.95288086 C43 23 43 23 41 25 C40.01 24.67 39.02 24.34 38 24 C38.66 23.67 39.32 23.34 40 23 C40.33 16.73 40.66 10.46 41 4 C37.04 5.98 37.04 5.98 33 8 C28.61729758 9.09567561 24.73817476 9.25749786 20.25 9.3125 C19.4765625 9.34150391 18.703125 9.37050781 17.90625 9.40039062 C11.38301903 9.47153324 6.23315939 7.83015806 1.27441406 3.48950195 C0 2 0 2 0 0 Z " fill="#0148BC" transform="translate(793,517)"/>
<path d="M0 0 C-10.12993992 2.76014391 -20.31087805 4.42095157 -30.69140625 5.9296875 C-38.68932524 7.17910547 -45.78500267 9.12624523 -53.27392578 12.09619141 C-56 13 -56 13 -58 12 C-57.18595703 11.60167969 -57.18595703 11.60167969 -56.35546875 11.1953125 C-55.64003906 10.84210938 -54.92460937 10.48890625 -54.1875 10.125 C-53.47980469 9.77695312 -52.77210938 9.42890625 -52.04296875 9.0703125 C-49.78753582 7.9343514 -49.78753582 7.9343514 -47 6 C-44.21102643 5.07034214 -42.14972148 4.79775728 -39.24609375 4.6015625 C-31.4368609 3.94575668 -23.78426969 2.44451611 -16.08764648 1.00585938 C-14.17563202 0.65040099 -12.26166105 0.30551778 -10.34765625 -0.0390625 C-9.22367432 -0.24740723 -8.09969238 -0.45575195 -6.94165039 -0.67041016 C-4.2213417 -0.97520032 -2.55330447 -0.89192637 0 0 Z " fill="#0573DD" transform="translate(233,499)"/>
<path d="M0 0 C0.99 0.4021875 0.99 0.4021875 2 0.8125 C2.99 1.204375 3.98 1.59625 5 2 C5.62777344 2.25265625 6.25554688 2.5053125 6.90234375 2.765625 C7.57394531 3.02859375 8.24554687 3.2915625 8.9375 3.5625 C9.87916016 3.93568359 9.87916016 3.93568359 10.83984375 4.31640625 C16.20774417 6.01510891 21.59864634 6.19189672 27.1875 6.1875 C28.30535889 6.18955444 28.30535889 6.18955444 29.44580078 6.19165039 C34.74972376 6.1452654 39.72335693 5.56552073 44.8984375 4.33984375 C47 4 47 4 50 5 C48.62708132 5.48509793 47.25153297 5.96275513 45.875 6.4375 C44.72644531 6.83775391 44.72644531 6.83775391 43.5546875 7.24609375 C37.23438707 9.11125886 31.15555537 9.12305437 24.625 9.0625 C23.23474609 9.05573242 23.23474609 9.05573242 21.81640625 9.04882812 C19.54420291 9.03711574 17.27213612 9.02071372 15 9 C15 8.34 15 7.68 15 7 C12.03 6.67 9.06 6.34 6 6 C6 5.34 6 4.68 6 4 C5.195625 3.71125 4.39125 3.4225 3.5625 3.125 C1 2 1 2 0 0 Z " fill="#0248BD" transform="translate(781,538)"/>
<path d="M0 0 C0.84433594 0.00322266 1.68867187 0.00644531 2.55859375 0.00976562 C3.86763672 0.02233398 3.86763672 0.02233398 5.203125 0.03515625 C6.53537109 0.04192383 6.53537109 0.04192383 7.89453125 0.04882812 C10.08079829 0.06058225 12.26692679 0.07701376 14.453125 0.09765625 C14.453125 0.75765625 14.453125 1.41765625 14.453125 2.09765625 C13.58530396 2.1116748 13.58530396 2.1116748 12.69995117 2.12597656 C-5.10494901 1.91828556 -5.10494901 1.91828556 -20.421875 9.72265625 C-21.123125 10.50640625 -21.824375 11.29015625 -22.546875 12.09765625 C-25.171875 13.28515625 -25.171875 13.28515625 -27.546875 14.09765625 C-28.536875 14.75765625 -29.526875 15.41765625 -30.546875 16.09765625 C-28.03690042 9.87728447 -21.63697307 6.56787385 -15.8046875 3.79296875 C-10.5158866 1.64292209 -5.74971558 -0.03884943 0 0 Z " fill="#004DC7" transform="translate(804.546875,459.90234375)"/>
<path d="M0 0 C0.33 0.66 0.66 1.32 1 2 C-0.21484375 4.8203125 -0.21484375 4.8203125 -1.9375 8.125 C-2.50339844 9.22070312 -3.06929688 10.31640625 -3.65234375 11.4453125 C-4.09707031 12.28835938 -4.54179687 13.13140625 -5 14 C-1.9168649 12.80100302 1.06279492 11.52299523 4 10 C3.04270084 11.12588014 2.08412105 12.2506715 1.125 13.375 C0.59132813 14.00148438 0.05765625 14.62796875 -0.4921875 15.2734375 C-3.75970154 19.01499503 -6.34321298 21.25370487 -11 23 C-11.66 23.33 -12.32 23.66 -13 24 C-12.3567124 20.32897212 -10.74194599 17.82946936 -8.6875 14.75 C-5.76871993 10.27893237 -3.31377071 5.80552379 -1 1 C-0.67 0.67 -0.34 0.34 0 0 Z " fill="#0F9BF2" transform="translate(309,494)"/>
<path d="M0 0 C0.66 0.33 1.32 0.66 2 1 C0.87926138 1.83905565 -0.24674547 2.67107831 -1.375 3.5 C-2.31472656 4.19609375 -2.31472656 4.19609375 -3.2734375 4.90625 C-5 6 -5 6 -7 6 C-7.20625 6.680625 -7.4125 7.36125 -7.625 8.0625 C-10.93762942 15.13948104 -16.69424242 19.63078218 -23 24 C-22.71125 23.443125 -22.4225 22.88625 -22.125 22.3125 C-20.94588069 20.01907961 -20.94588069 20.01907961 -20.1875 17.54296875 C-18.67496497 14.30395458 -16.70606049 12.62917097 -14 10.3125 C-13.113125 9.54550781 -12.22625 8.77851562 -11.3125 7.98828125 C-10.549375 7.33214844 -9.78625 6.67601562 -9 6 C-8.34 5.34 -7.68 4.68 -7 4 C-4.72424462 2.48104063 -2.44208966 1.26465358 0 0 Z " fill="#10A3EF" transform="translate(169,524)"/>
<path d="M0 0 C0.495 0.99 0.495 0.99 1 2 C-1.0625 3.375 -1.0625 3.375 -3.125 4.75 C-3.95257813 5.30558594 -4.78015625 5.86117188 -5.6328125 6.43359375 C-7.39584472 7.60022068 -9.1905328 8.71928023 -11 9.8125 C-21.62484542 17.55978312 -28.29804418 27.830232 -33 40 C-34.39010821 35.82967537 -33.04881284 34.33215222 -31.125 30.4375 C-27.69378282 23.6669498 -23.47274848 18.29222379 -18 13 C-17.01 12.03126953 -17.01 12.03126953 -16 11.04296875 C-11.14228745 6.54762589 -5.76188225 3.22334806 0 0 Z " fill="#3AD55C" transform="translate(96,384)"/>
<path d="M0 0 C4.22902991 -0.08860651 8.45781493 -0.14092245 12.6875 -0.1875 C13.86634766 -0.21263672 15.04519531 -0.23777344 16.25976562 -0.26367188 C26.35967302 -0.34668481 35.65668653 1.0559973 45 5 C41.29479664 6.37229754 39.55505614 5.46169709 36 4 C27.26731805 1.66552067 15.71334985 0.09555005 7 3 C5.3603125 3.2165625 5.3603125 3.2165625 3.6875 3.4375 C0.02932509 3.87804285 0.02932509 3.87804285 -3.1875 5.125 C-6 6 -6 6 -10 5 C-6.7 3.68 -3.4 2.36 0 1 C0 0.67 0 0.34 0 0 Z " fill="#3EDA5E" transform="translate(109,378)"/>
<path d="M0 0 C1.41965128 3.88354453 0.67152397 7.43076692 0.00390625 11.390625 C-0.10848892 12.09523865 -0.22088409 12.79985229 -0.33668518 13.52581787 C-0.69617369 15.7684888 -1.06667342 18.00917882 -1.4375 20.25 C-1.68367185 21.77331985 -1.92912288 23.29675637 -2.17382812 24.8203125 C-2.77420668 28.54827878 -3.3844646 32.27450759 -4 36 C-4.33 36 -4.66 36 -5 36 C-4.85967508 32.81223289 -4.71173356 29.6248615 -4.5625 26.4375 C-4.52318359 25.54224609 -4.48386719 24.64699219 -4.44335938 23.72460938 C-4.12225005 16.98131356 -3.70719368 10.4768517 -1.4375 4.0625 C-1.16808594 3.29035156 -0.89867187 2.51820313 -0.62109375 1.72265625 C-0.41613281 1.15417969 -0.21117187 0.58570313 0 0 Z " fill="#18C653" transform="translate(149,490)"/>
<path d="M0 0 C4.54076902 3.70675022 8.43590579 7.51544351 12.234375 11.97265625 C15.81460744 16.08358687 19.45625275 19.97083517 24 23 C24 23.66 24 24.32 24 25 C21.07981131 23.68111554 19.01101183 22.25903529 16.7578125 19.98828125 C16.16613281 19.39466797 15.57445313 18.80105469 14.96484375 18.18945312 C14.35769531 17.57005859 13.75054687 16.95066406 13.125 16.3125 C12.52558594 15.71244141 11.92617187 15.11238281 11.30859375 14.49414062 C0 3.0751593 0 3.0751593 0 0 Z " fill="#137E4B" transform="translate(90,519)"/>
<path d="M0 0 C-0.33 0.66 -0.66 1.32 -1 2 C-0.34 2.66 0.32 3.32 1 4 C-0.9147688 4.36428777 -2.83192293 4.71605306 -4.75 5.0625 C-5.81734375 5.25972656 -6.8846875 5.45695313 -7.984375 5.66015625 C-10.74771905 5.97156937 -12.40946617 5.8991416 -15 5 C-11.55014028 1.85012808 -4.53875449 -2.26937725 0 0 Z " fill="#0A8EF5" transform="translate(268,525)"/>
<path d="M0 0 C1 3 1 3 -0.546875 6.6171875 C-1.27109606 8.04166642 -2.00594254 9.46078119 -2.75 10.875 C-3.1109375 11.58269531 -3.471875 12.29039062 -3.84375 13.01953125 C-5.76810206 16.76365101 -7.78149753 20.41950551 -10 24 C-10.33 23.34 -10.66 22.68 -11 22 C-10.0390625 20.08203125 -10.0390625 20.08203125 -8.625 17.8125 C-6.24167744 13.73246304 -5.29930049 10.68904101 -5 6 C-4.34 6 -3.68 6 -3 6 C-3 5.01 -3 4.02 -3 3 C-1.5 1.3125 -1.5 1.3125 0 0 Z " fill="#16A6F2" transform="translate(351,491)"/>
<path d="M0 0 C0.33 0.66 0.66 1.32 1 2 C3.52733235 2.65555119 3.52733235 2.65555119 6 3 C3.00796814 4.66223992 0.34238789 5.34782675 -3 6 C-4.6792238 6.63437344 -6.35008418 7.29289322 -8 8 C-7.9375 6.25 -7.9375 6.25 -7 4 C-4.75835678 2.40498463 -2.46433357 1.25456982 0 0 Z " fill="#19A9F2" transform="translate(347,472)"/>
<path d="M0 0 C2.3671875 1.5234375 2.3671875 1.5234375 4 3 C3.67 3.66 3.34 4.32 3 5 C2.030625 4.484375 1.06125 3.96875 0.0625 3.4375 C-4.44142843 1.51375729 -8.30658752 1.85215456 -13 3 C-16.43595207 4.4225861 -16.43595207 4.4225861 -19 6 C-18 3 -18 3 -15.6875 1.3125 C-10.52284783 -0.52576603 -5.43023901 -0.77142671 0 0 Z " fill="#014AC3" transform="translate(892,480)"/>
<path d="M0 0 C0.66 0.33 1.32 0.66 2 1 C-1.33333333 4.33333333 -4.66666667 7.66666667 -8 11 C-9.15941038 7.52176885 -8.70820884 5.54104422 -8 2 C-7.34 2.66 -6.68 3.32 -6 4 C-4.02 2.68 -2.04 1.36 0 0 Z " fill="#087BDB" transform="translate(152,526)"/>
<path d="M0 0 C2.97 0 5.94 0 9 0 C9 0.99 9 1.98 9 3 C8.195625 2.938125 7.39125 2.87625 6.5625 2.8125 C2.65564338 3.01812403 -0.24351487 4.01717692 -3.8515625 5.44140625 C-6 6 -6 6 -10 5 C-6.7 3.68 -3.4 2.36 0 1 C0 0.67 0 0.34 0 0 Z " fill="#3ACF58" transform="translate(109,378)"/>
<path d="M0 0 C0.804375 0.804375 1.60875 1.60875 2.4375 2.4375 C5.79040001 5.27149882 8.64763434 5.65135365 12.94921875 5.859375 C15 6 15 6 18 7 C14.55580707 8.72209646 10.77337953 8.37733795 7 8 C3.9375 6.625 3.9375 6.625 2 5 C2 4.34 2 3.68 2 3 C1.34 3 0.68 3 0 3 C0 2.01 0 1.02 0 0 Z " fill="#39D865" transform="translate(393,440)"/>
<path d="M0 0 C1.74627478 2.61941217 2.38722388 4.03824877 3 7 C6.38018531 8.04005702 9.4780279 8.08004482 13 8 C13 8.66 13 9.32 13 10 C5.89156627 11.44578313 5.89156627 11.44578313 2 9.5 C-0.63289985 6.20887519 -0.39486818 4.10662903 0 0 Z " fill="#0A93F0" transform="translate(261,416)"/>
<path d="M0 0 C2.72943537 -0.05416741 5.45778564 -0.09375225 8.1875 -0.125 C9.34088867 -0.15013672 9.34088867 -0.15013672 10.51757812 -0.17578125 C14.8149434 -0.21266851 18.07901831 0.0041496 22 2 C18.98968256 2.93423645 18.13349732 3.04449911 15 2 C12.43365139 1.77281504 9.88321893 1.58391816 7.3125 1.4375 C6.61060547 1.39431641 5.90871094 1.35113281 5.18554688 1.30664062 C3.45724794 1.2008264 1.7286489 1.09993419 0 1 C0 0.67 0 0.34 0 0 Z " fill="#3BE066" transform="translate(474,461)"/>
<path d="M0 0 C0.99 0.99 1.98 1.98 3 3 C1.6302836 6.99500618 -0.25722422 9.80009492 -3 13 C-3.1875 10.1875 -3.1875 10.1875 -3 7 C-1.5 5.375 -1.5 5.375 0 4 C0 2.68 0 1.36 0 0 Z " fill="#129881" transform="translate(141,533)"/>
<path d="M0 0 C-2.80228148 3.11364609 -5.07826421 4.59219741 -9 6 C-9.99 6.66 -10.98 7.32 -12 8 C-9.82021749 2.45146271 -6.05820197 -0.69236594 0 0 Z " fill="#005BD6" transform="translate(786,468)"/>
<path d="M0 0 C0.66 0.33 1.32 0.66 2 1 C1.21625 2.051875 0.4325 3.10375 -0.375 4.1875 C-2.40508579 7.01696802 -3.89112979 9.67338936 -5 13 C-5.33 13 -5.66 13 -6 13 C-5.63076923 5.73846154 -5.63076923 5.73846154 -2.4375 2 C-1.633125 1.34 -0.82875 0.68 0 0 Z " fill="#1099F3" transform="translate(212,386)"/>
<path d="M0 0 C3.9492568 0.55105909 7.34920174 1.38935371 11 3 C7.90521121 4.03159626 6.47368607 3.97482862 3.3125 3.5625 C2.10013672 3.40974609 2.10013672 3.40974609 0.86328125 3.25390625 C0.24839844 3.17011719 -0.36648438 3.08632813 -1 3 C-0.67 2.01 -0.34 1.02 0 0 Z " fill="#0D94ED" transform="translate(291,368)"/>
<path d="M0 0 C0 3.23861295 -0.6250851 5.09740189 -2 8 C-2.99 8.495 -2.99 8.495 -4 9 C-4.66 8.34 -5.32 7.68 -6 7 C-4.02 4.69 -2.04 2.38 0 0 Z " fill="#0D89E4" transform="translate(202,396)"/>
<path d="M0 0 C0.66 0 1.32 0 2 0 C3.38442 1.96498322 4.71203834 3.97048465 6 6 C6.98866506 7.34175973 7.9838154 8.67896002 9 10 C8.67 10.66 8.34 11.32 8 12 C1.48063781 4.88610478 1.48063781 4.88610478 0 0 Z " fill="#22C170" transform="translate(81,505)"/>
<path d="M0 0 C0.66 0.33 1.32 0.66 2 1 C1.4140625 7.15234375 1.4140625 7.15234375 1 9 C0.01 9.495 0.01 9.495 -1 10 C-1.125 2.25 -1.125 2.25 0 0 Z " fill="#14BA5C" transform="translate(143,525)"/>
<path d="M0 0 C2.0625 0.4375 2.0625 0.4375 4 1 C0.75490696 3.03977277 -2.40608886 4.66511872 -6 6 C-4 4 -2 2 0 0 Z " fill="#119CF0" transform="translate(220,380)"/>
<path d="M0 0 C0 3.52032428 -0.70351351 4.4385343 -3 7 C-3.66 7 -4.32 7 -5 7 C-3.75023244 3.34683329 -3.32901247 2.21934164 0 0 Z " fill="#13A6F2" transform="translate(339,515)"/>
<path d="M0 0 C2.0343459 1.41519715 2.90410393 2.54982123 3.421875 4.98046875 C3.66273952 6.98176954 3.83532741 8.9909944 4 11 C1.73030256 8.73030256 1.00868171 7.02604513 0 4 C0 2.68 0 1.36 0 0 Z " fill="#2DCD6C" transform="translate(63,469)"/>
<path d="M0 0 C0 0.99 0 1.98 0 3 C-0.66 2.67 -1.32 2.34 -2 2 C-1.34 1.34 -0.68 0.68 0 0 Z " fill="#0076FF" transform="translate(799,485)"/>
<path d="M0 0 C0.33 0 0.66 0 1 0 C1 1.65 1 3.3 1 5 C0.67 5 0.34 5 0 5 C0 3.35 0 1.7 0 0 Z " fill="#08BA4C" transform="translate(390,475)"/>
<path d="M0 0 C1.485 0.99 1.485 0.99 3 2 C2.01 2 1.02 2 0 2 C0 1.34 0 0.68 0 0 Z " fill="#0CC5FF" transform="translate(266,530)"/>
<path d="M0 0 C3 1 3 1 3 1 Z " fill="#11A4FF" transform="translate(230,532)"/>
<path d="M0 0 C3 1 3 1 3 1 Z " fill="#0046FF" transform="translate(815,523)"/>
<path d="" fill="#1CE21C" transform="translate(0,0)"/>
<path d="" fill="#1CE271" transform="translate(0,0)"/>
<path d="M0 0 C0.66 0.66 1.32 1.32 2 2 C1.34 2 0.68 2 0 2 C0 1.34 0 0.68 0 0 Z " fill="#00FF00" transform="translate(69,493)"/>
<path d="" fill="#1CE21C" transform="translate(0,0)"/>
<path d="" fill="#1CE21C" transform="translate(0,0)"/>
<path d="M0 0 C0.66 0.66 1.32 1.32 2 2 C1.34 2 0.68 2 0 2 C0 1.34 0 0.68 0 0 Z " fill="#003FE9" transform="translate(752,458)"/>
<path d="M0 0 C0.99 0.495 0.99 0.495 2 1 C1.01 1.495 1.01 1.495 0 2 C0 1.34 0 0.68 0 0 Z " fill="#15947F" transform="translate(176,425)"/>
<path d="M0 0 C3 1 3 1 3 1 Z " fill="#001CE2" transform="translate(847,420)"/>
<path d="M0 0 C2 1 2 1 2 1 Z " fill="#00FFFF" transform="translate(122,554)"/>
<path d="M0 0 C2 1 2 1 2 1 Z " fill="#001FDF" transform="translate(797,547)"/>
<path d="M0 0 C2 1 2 1 2 1 Z " fill="#0000FF" transform="translate(701,547)"/>
<path d="" fill="#002AD4" transform="translate(0,0)"/>
<path d="" fill="#0094FF" transform="translate(0,0)"/>
<path d="" fill="#2AD42A" transform="translate(0,0)"/>
<path d="M0 0 C2 1 2 1 2 1 Z " fill="#006AFF" transform="translate(808,523)"/>
<path d="" fill="#0000FF" transform="translate(0,0)"/>
<path d="M0 0 C2 1 2 1 2 1 Z " fill="#003FFF" transform="translate(827,520)"/>
<path d="M0 0 C2 1 2 1 2 1 Z " fill="#00D4FF" transform="translate(300,516)"/>
<path d="M0 0 C2 1 2 1 2 1 Z " fill="#00D4FF" transform="translate(294,513)"/>
<path d="" fill="#0000FF" transform="translate(0,0)"/>
<path d="" fill="#00FF00" transform="translate(0,0)"/>
<path d="M0 0 C2 1 2 1 2 1 Z " fill="#00BFFF" transform="translate(310,508)"/>
<path d="" fill="#00BFFF" transform="translate(0,0)"/>
<path d="" fill="#006AFF" transform="translate(0,0)"/>
<path d="" fill="#2AD42A" transform="translate(0,0)"/>
<path d="" fill="#0000FF" transform="translate(0,0)"/>
<path d="" fill="#00BFFF" transform="translate(0,0)"/>
<path d="" fill="#2AD42A" transform="translate(0,0)"/>
<path d="" fill="#00BFFF" transform="translate(0,0)"/>
<path d="" fill="#0000FF" transform="translate(0,0)"/>
<path d="" fill="#00BF3F" transform="translate(0,0)"/>
<path d="" fill="#0000FF" transform="translate(0,0)"/>
<path d="M0 0 C2 1 2 1 2 1 Z " fill="#0000FF" transform="translate(895,458)"/>
<path d="" fill="#15D4D4" transform="translate(0,0)"/>
<path d="M0 0 C2 1 2 1 2 1 Z " fill="#00BF3F" transform="translate(67,403)"/>
<path d="" fill="#00BFFF" transform="translate(0,0)"/>
<path d="" fill="#000000" transform="translate(0,0)"/>
<path d="" fill="#000000" transform="translate(0,0)"/>
<path d="" fill="#7F7F7F" transform="translate(0,0)"/>
<path d="" fill="#555555" transform="translate(0,0)"/>
<path d="" fill="#000000" transform="translate(0,0)"/>
<path d="" fill="#000000" transform="translate(0,0)"/>
<path d="" fill="#000000" transform="translate(0,0)"/>
<path d="" fill="#000000" transform="translate(0,0)"/>
<path d="" fill="#000000" transform="translate(0,0)"/>
<path d="" fill="#7F7F7F" transform="translate(0,0)"/>
<path d="" fill="#000000" transform="translate(0,0)"/>
<path d="" fill="#000000" transform="translate(0,0)"/>
<path d="" fill="#000000" transform="translate(0,0)"/>
<path d="" fill="#000000" transform="translate(0,0)"/>
<path d="" fill="#000000" transform="translate(0,0)"/>
<path d="" fill="#000000" transform="translate(0,0)"/>
<path d="" fill="#000000" transform="translate(0,0)"/>
<path d="" fill="#000000" transform="translate(0,0)"/>
<path d="" fill="#000000" transform="translate(0,0)"/>
<path d="" fill="#7F7F7F" transform="translate(0,0)"/>
<path d="" fill="#000000" transform="translate(0,0)"/>
<path d="" fill="#000000" transform="translate(0,0)"/>
<path d="" fill="#000000" transform="translate(0,0)"/>
<path d="" fill="#000000" transform="translate(0,0)"/>
<path d="" fill="#000000" transform="translate(0,0)"/>
<path d="" fill="#000000" transform="translate(0,0)"/>
<path d="" fill="#7F7F7F" transform="translate(0,0)"/>
<path d="" fill="#000000" transform="translate(0,0)"/>
<path d="" fill="#000000" transform="translate(0,0)"/>
<path d="" fill="#7F7F7F" transform="translate(0,0)"/>
<path d="" fill="#7F7F7F" transform="translate(0,0)"/>
<path d="" fill="#000000" transform="translate(0,0)"/>
<path d="" fill="#000000" transform="translate(0,0)"/>
<path d="" fill="#000000" transform="translate(0,0)"/>
<path d="" fill="#000000" transform="translate(0,0)"/>
<path d="" fill="#000000" transform="translate(0,0)"/>
<path d="" fill="#000000" transform="translate(0,0)"/>
<path d="" fill="#000000" transform="translate(0,0)"/>
<path d="" fill="#000000" transform="translate(0,0)"/>
<path d="" fill="#000000" transform="translate(0,0)"/>
<path d="" fill="#000000" transform="translate(0,0)"/>
<path d="" fill="#000000" transform="translate(0,0)"/>
<path d="" fill="#000000" transform="translate(0,0)"/>
<path d="" fill="#000000" transform="translate(0,0)"/>
<path d="" fill="#000000" transform="translate(0,0)"/>
<path d="" fill="#000000" transform="translate(0,0)"/>
<path d="" fill="#7F7F7F" transform="translate(0,0)"/>
<path d="" fill="#000000" transform="translate(0,0)"/>
<path d="" fill="#000000" transform="translate(0,0)"/>
<path d="" fill="#000000" transform="translate(0,0)"/>
<path d="" fill="#000000" transform="translate(0,0)"/>
<path d="" fill="#000000" transform="translate(0,0)"/>
<path d="" fill="#000000" transform="translate(0,0)"/>
<path d="" fill="#7F7F7F" transform="translate(0,0)"/>
<path d="" fill="#000000" transform="translate(0,0)"/>
<path d="" fill="#000000" transform="translate(0,0)"/>
<path d="" fill="#7F7F7F" transform="translate(0,0)"/>
<path d="" fill="#000000" transform="translate(0,0)"/>
<path d="" fill="#000000" transform="translate(0,0)"/>
<path d="" fill="#000000" transform="translate(0,0)"/>
<path d="" fill="#000000" transform="translate(0,0)"/>
<path d="" fill="#000000" transform="translate(0,0)"/>
<path d="" fill="#000000" transform="translate(0,0)"/>
<path d="" fill="#000000" transform="translate(0,0)"/>
<path d="" fill="#000000" transform="translate(0,0)"/>
<path d="" fill="#000000" transform="translate(0,0)"/>
<path d="" fill="#000000" transform="translate(0,0)"/>
<path d="" fill="#7F7F7F" transform="translate(0,0)"/>
<path d="" fill="#000000" transform="translate(0,0)"/>
<path d="" fill="#000000" transform="translate(0,0)"/>
<path d="" fill="#000000" transform="translate(0,0)"/>
<path d="" fill="#000000" transform="translate(0,0)"/>
<path d="" fill="#000000" transform="translate(0,0)"/>
<path d="" fill="#000000" transform="translate(0,0)"/>
<path d="" fill="#000000" transform="translate(0,0)"/>
<path d="" fill="#000000" transform="translate(0,0)"/>
<path d="" fill="#000000" transform="translate(0,0)"/>
<path d="" fill="#000000" transform="translate(0,0)"/>
<path d="" fill="#000000" transform="translate(0,0)"/>
<path d="" fill="#000000" transform="translate(0,0)"/>
<path d="" fill="#000000" transform="translate(0,0)"/>
<path d="" fill="#000000" transform="translate(0,0)"/>
<path d="" fill="#000000" transform="translate(0,0)"/>
<path d="" fill="#000000" transform="translate(0,0)"/>
<path d="" fill="#000000" transform="translate(0,0)"/>
<path d="" fill="#000000" transform="translate(0,0)"/>
<path d="" fill="#000000" transform="translate(0,0)"/>
<path d="" fill="#000000" transform="translate(0,0)"/>
<path d="" fill="#000000" transform="translate(0,0)"/>
<path d="" fill="#000000" transform="translate(0,0)"/>
<path d="" fill="#000000" transform="translate(0,0)"/>
<path d="" fill="#000000" transform="translate(0,0)"/>
<path d="" fill="#000000" transform="translate(0,0)"/>
<path d="" fill="#000000" transform="translate(0,0)"/>
<path d="" fill="#000000" transform="translate(0,0)"/>
<path d="" fill="#000000" transform="translate(0,0)"/>
<path d="" fill="#000000" transform="translate(0,0)"/>
<path d="" fill="#000000" transform="translate(0,0)"/>
<path d="" fill="#000000" transform="translate(0,0)"/>
<path d="" fill="#000000" transform="translate(0,0)"/>
<path d="" fill="#000000" transform="translate(0,0)"/>
<path d="" fill="#000000" transform="translate(0,0)"/>
<path d="" fill="#000000" transform="translate(0,0)"/>
<path d="" fill="#000000" transform="translate(0,0)"/>
<path d="" fill="#000000" transform="translate(0,0)"/>
<path d="" fill="#000000" transform="translate(0,0)"/>
<path d="" fill="#000000" transform="translate(0,0)"/>
<path d="" fill="#000000" transform="translate(0,0)"/>
<path d="" fill="#000000" transform="translate(0,0)"/>
<path d="" fill="#000000" transform="translate(0,0)"/>
<path d="" fill="#000000" transform="translate(0,0)"/>
<path d="" fill="#000000" transform="translate(0,0)"/>
<path d="" fill="#000000" transform="translate(0,0)"/>
<path d="" fill="#000000" transform="translate(0,0)"/>
<path d="" fill="#000000" transform="translate(0,0)"/>
<path d="" fill="#000000" transform="translate(0,0)"/>
<path d="" fill="#000000" transform="translate(0,0)"/>
<path d="" fill="#000000" transform="translate(0,0)"/>
<path d="" fill="#000000" transform="translate(0,0)"/>
<path d="" fill="#000000" transform="translate(0,0)"/>
<path d="" fill="#000000" transform="translate(0,0)"/>
<path d="" fill="#000000" transform="translate(0,0)"/>
<path d="" fill="#000000" transform="translate(0,0)"/>
<path d="" fill="#00007F" transform="translate(0,0)"/>
<path d="" fill="#00FFFF" transform="translate(0,0)"/>
<path d="" fill="#00AAFF" transform="translate(0,0)"/>
<path d="" fill="#000000" transform="translate(0,0)"/>
<path d="" fill="#007FFF" transform="translate(0,0)"/>
<path d="" fill="#00FFFF" transform="translate(0,0)"/>
<path d="" fill="#00FFFF" transform="translate(0,0)"/>
<path d="" fill="#00FFFF" transform="translate(0,0)"/>
<path d="" fill="#007FFF" transform="translate(0,0)"/>
<path d="" fill="#00FFFF" transform="translate(0,0)"/>
<path d="" fill="#0000FF" transform="translate(0,0)"/>
<path d="" fill="#00FFFF" transform="translate(0,0)"/>
<path d="" fill="#007FFF" transform="translate(0,0)"/>
<path d="" fill="#00AAFF" transform="translate(0,0)"/>
<path d="" fill="#0000FF" transform="translate(0,0)"/>
<path d="" fill="#00FFFF" transform="translate(0,0)"/>
<path d="" fill="#00FFFF" transform="translate(0,0)"/>
<path d="" fill="#0000FF" transform="translate(0,0)"/>
<path d="" fill="#00FFFF" transform="translate(0,0)"/>
<path d="" fill="#00FFFF" transform="translate(0,0)"/>
<path d="" fill="#00FFFF" transform="translate(0,0)"/>
<path d="" fill="#00FFFF" transform="translate(0,0)"/>
<path d="" fill="#00FFFF" transform="translate(0,0)"/>
<path d="" fill="#00FFFF" transform="translate(0,0)"/>
<path d="" fill="#007FFF" transform="translate(0,0)"/>
<path d="" fill="#0000FF" transform="translate(0,0)"/>
<path d="" fill="#0000FF" transform="translate(0,0)"/>
<path d="" fill="#0000FF" transform="translate(0,0)"/>
<path d="" fill="#00FF00" transform="translate(0,0)"/>
<path d="" fill="#00FFFF" transform="translate(0,0)"/>
<path d="" fill="#007FFF" transform="translate(0,0)"/>
<path d="" fill="#007FFF" transform="translate(0,0)"/>
<path d="" fill="#3F7F7F" transform="translate(0,0)"/>
<path d="" fill="#00FFFF" transform="translate(0,0)"/>
<path d="" fill="#007FFF" transform="translate(0,0)"/>
<path d="" fill="#007FFF" transform="translate(0,0)"/>
<path d="" fill="#0000FF" transform="translate(0,0)"/>
<path d="" fill="#00FFFF" transform="translate(0,0)"/>
<path d="" fill="#0066CC" transform="translate(0,0)"/>
<path d="" fill="#0000FF" transform="translate(0,0)"/>
<path d="" fill="#00FFFF" transform="translate(0,0)"/>
<path d="" fill="#00AAAA" transform="translate(0,0)"/>
<path d="" fill="#0000FF" transform="translate(0,0)"/>
<path d="" fill="#00FFFF" transform="translate(0,0)"/>
<path d="" fill="#007FFF" transform="translate(0,0)"/>
<path d="" fill="#00FF00" transform="translate(0,0)"/>
<path d="" fill="#007F7F" transform="translate(0,0)"/>
<path d="" fill="#007FFF" transform="translate(0,0)"/>
<path d="" fill="#0000FF" transform="translate(0,0)"/>
<path d="" fill="#007FFF" transform="translate(0,0)"/>
<path d="" fill="#00FFFF" transform="translate(0,0)"/>
<path d="" fill="#00BFFF" transform="translate(0,0)"/>
<path d="" fill="#0000FF" transform="translate(0,0)"/>
<path d="" fill="#0000FF" transform="translate(0,0)"/>
<path d="" fill="#00AAFF" transform="translate(0,0)"/>
<path d="" fill="#00FFFF" transform="translate(0,0)"/>
<path d="" fill="#007FFF" transform="translate(0,0)"/>
<path d="" fill="#00FF00" transform="translate(0,0)"/>
<path d="" fill="#007FFF" transform="translate(0,0)"/>
<path d="" fill="#00FF00" transform="translate(0,0)"/>
<path d="" fill="#00FF7F" transform="translate(0,0)"/>
<path d="" fill="#007FFF" transform="translate(0,0)"/>
<path d="" fill="#00FFFF" transform="translate(0,0)"/>
<path d="" fill="#0000FF" transform="translate(0,0)"/>
<path d="" fill="#0000FF" transform="translate(0,0)"/>
<path d="" fill="#007FFF" transform="translate(0,0)"/>
<path d="" fill="#007FFF" transform="translate(0,0)"/>
<path d="" fill="#0000FF" transform="translate(0,0)"/>
<path d="" fill="#007FFF" transform="translate(0,0)"/>
<path d="" fill="#0000FF" transform="translate(0,0)"/>
<path d="" fill="#007FFF" transform="translate(0,0)"/>
<path d="" fill="#00FF00" transform="translate(0,0)"/>
<path d="" fill="#007FFF" transform="translate(0,0)"/>
<path d="" fill="#007FFF" transform="translate(0,0)"/>
<path d="" fill="#0000FF" transform="translate(0,0)"/>
<path d="" fill="#00FFFF" transform="translate(0,0)"/>
<path d="" fill="#00FF7F" transform="translate(0,0)"/>
<path d="" fill="#00FFFF" transform="translate(0,0)"/>
<path d="" fill="#00FFFF" transform="translate(0,0)"/>
<path d="" fill="#00FFFF" transform="translate(0,0)"/>
<path d="" fill="#0000FF" transform="translate(0,0)"/>
<path d="" fill="#0055FF" transform="translate(0,0)"/>
<path d="" fill="#00FF7F" transform="translate(0,0)"/>
<path d="" fill="#007FFF" transform="translate(0,0)"/>
<path d="" fill="#00FFFF" transform="translate(0,0)"/>
<path d="" fill="#0066FF" transform="translate(0,0)"/>
<path d="" fill="#0000FF" transform="translate(0,0)"/>
<path d="" fill="#00FFFF" transform="translate(0,0)"/>
<path d="" fill="#007FFF" transform="translate(0,0)"/>
<path d="" fill="#00FFFF" transform="translate(0,0)"/>
<path d="" fill="#0000FF" transform="translate(0,0)"/>
<path d="" fill="#00FF00" transform="translate(0,0)"/>
<path d="" fill="#00FFFF" transform="translate(0,0)"/>
<path d="" fill="#007FFF" transform="translate(0,0)"/>
<path d="" fill="#007FFF" transform="translate(0,0)"/>
<path d="" fill="#55AA55" transform="translate(0,0)"/>
<path d="" fill="#007FFF" transform="translate(0,0)"/>
<path d="" fill="#00FFFF" transform="translate(0,0)"/>
<path d="" fill="#00FFFF" transform="translate(0,0)"/>
<path d="" fill="#00FFFF" transform="translate(0,0)"/>
<path d="" fill="#00AAFF" transform="translate(0,0)"/>
<path d="" fill="#0000FF" transform="translate(0,0)"/>
<path d="" fill="#0000FF" transform="translate(0,0)"/>
<path d="" fill="#3FBF7F" transform="translate(0,0)"/>
<path d="" fill="#007FFF" transform="translate(0,0)"/>
<path d="" fill="#007FFF" transform="translate(0,0)"/>
<path d="" fill="#0000FF" transform="translate(0,0)"/>
<path d="" fill="#00FFFF" transform="translate(0,0)"/>
<path d="" fill="#00FFFF" transform="translate(0,0)"/>
<path d="" fill="#007FFF" transform="translate(0,0)"/>
<path d="" fill="#007FFF" transform="translate(0,0)"/>
<path d="" fill="#0000FF" transform="translate(0,0)"/>
<path d="" fill="#0000FF" transform="translate(0,0)"/>
<path d="" fill="#0055FF" transform="translate(0,0)"/>
<path d="" fill="#55AA55" transform="translate(0,0)"/>
<path d="" fill="#0000FF" transform="translate(0,0)"/>
<path d="" fill="#007FFF" transform="translate(0,0)"/>
<path d="" fill="#0000FF" transform="translate(0,0)"/>
<path d="" fill="#3FBF3F" transform="translate(0,0)"/>
<path d="" fill="#007FFF" transform="translate(0,0)"/>
<path d="" fill="#00FFFF" transform="translate(0,0)"/>
<path d="" fill="#00FFFF" transform="translate(0,0)"/>
<path d="" fill="#00FFFF" transform="translate(0,0)"/>
<path d="" fill="#00AA55" transform="translate(0,0)"/>
<path d="" fill="#00FF00" transform="translate(0,0)"/>
<path d="" fill="#00FFFF" transform="translate(0,0)"/>
<path d="" fill="#007FFF" transform="translate(0,0)"/>
<path d="" fill="#0000FF" transform="translate(0,0)"/>
<path d="" fill="#0000FF" transform="translate(0,0)"/>
<path d="" fill="#007FFF" transform="translate(0,0)"/>
<path d="" fill="#00FFFF" transform="translate(0,0)"/>
<path d="" fill="#0000FF" transform="translate(0,0)"/>
<path d="" fill="#007F7F" transform="translate(0,0)"/>
<path d="" fill="#0000FF" transform="translate(0,0)"/>
<path d="" fill="#0000FF" transform="translate(0,0)"/>
<path d="" fill="#007F7F" transform="translate(0,0)"/>
<path d="" fill="#0099FF" transform="translate(0,0)"/>
<path d="" fill="#007FFF" transform="translate(0,0)"/>
<path d="" fill="#007FFF" transform="translate(0,0)"/>
<path d="" fill="#007FFF" transform="translate(0,0)"/>
<path d="" fill="#0000FF" transform="translate(0,0)"/>
<path d="" fill="#0000FF" transform="translate(0,0)"/>
<path d="" fill="#007FFF" transform="translate(0,0)"/>
<path d="" fill="#0000FF" transform="translate(0,0)"/>
<path d="" fill="#55AA55" transform="translate(0,0)"/>
<path d="" fill="#00AAFF" transform="translate(0,0)"/>
<path d="" fill="#0055FF" transform="translate(0,0)"/>
<path d="" fill="#00FFFF" transform="translate(0,0)"/>
<path d="" fill="#00FF00" transform="translate(0,0)"/>
<path d="" fill="#0055FF" transform="translate(0,0)"/>
<path d="" fill="#0000FF" transform="translate(0,0)"/>
<path d="" fill="#0000FF" transform="translate(0,0)"/>
<path d="" fill="#007FFF" transform="translate(0,0)"/>
<path d="" fill="#00FFFF" transform="translate(0,0)"/>
<path d="" fill="#00FFFF" transform="translate(0,0)"/>
<path d="" fill="#2AAAD4" transform="translate(0,0)"/>
<path d="" fill="#0000FF" transform="translate(0,0)"/>
<path d="" fill="#0000FF" transform="translate(0,0)"/>
<path d="" fill="#00FFFF" transform="translate(0,0)"/>
<path d="" fill="#0000FF" transform="translate(0,0)"/>
<path d="" fill="#007FFF" transform="translate(0,0)"/>
<path d="" fill="#00FF00" transform="translate(0,0)"/>
<path d="" fill="#007FFF" transform="translate(0,0)"/>
<path d="" fill="#00FF00" transform="translate(0,0)"/>
<path d="" fill="#0000FF" transform="translate(0,0)"/>
<path d="" fill="#0000FF" transform="translate(0,0)"/>
<path d="" fill="#007FFF" transform="translate(0,0)"/>
<path d="" fill="#0055FF" transform="translate(0,0)"/>
<path d="" fill="#0000FF" transform="translate(0,0)"/>
<path d="" fill="#007FFF" transform="translate(0,0)"/>
<path d="" fill="#0000FF" transform="translate(0,0)"/>
<path d="" fill="#007FFF" transform="translate(0,0)"/>
<path d="" fill="#0055FF" transform="translate(0,0)"/>
<path d="" fill="#0000FF" transform="translate(0,0)"/>
<path d="" fill="#0055AA" transform="translate(0,0)"/>
<path d="" fill="#007F7F" transform="translate(0,0)"/>
<path d="" fill="#00FF00" transform="translate(0,0)"/>
<path d="" fill="#00FF00" transform="translate(0,0)"/>
<path d="" fill="#0000FF" transform="translate(0,0)"/>
<path d="" fill="#0000FF" transform="translate(0,0)"/>
<path d="" fill="#007FFF" transform="translate(0,0)"/>
<path d="" fill="#00FF00" transform="translate(0,0)"/>
<path d="" fill="#007FFF" transform="translate(0,0)"/>
<path d="" fill="#0000FF" transform="translate(0,0)"/>
<path d="" fill="#00FF00" transform="translate(0,0)"/>
<path d="" fill="#00FF00" transform="translate(0,0)"/>
<path d="" fill="#0000FF" transform="translate(0,0)"/>
<path d="" fill="#0000FF" transform="translate(0,0)"/>
<path d="" fill="#0000FF" transform="translate(0,0)"/>
<path d="" fill="#0055AA" transform="translate(0,0)"/>
<path d="" fill="#007FFF" transform="translate(0,0)"/>
<path d="" fill="#007FFF" transform="translate(0,0)"/>
<path d="" fill="#0000FF" transform="translate(0,0)"/>
<path d="" fill="#0000FF" transform="translate(0,0)"/>
<path d="" fill="#007FFF" transform="translate(0,0)"/>
<path d="" fill="#00FFFF" transform="translate(0,0)"/>
<path d="" fill="#0000FF" transform="translate(0,0)"/>
<path d="" fill="#007FFF" transform="translate(0,0)"/>
<path d="" fill="#0000FF" transform="translate(0,0)"/>
<path d="" fill="#0000FF" transform="translate(0,0)"/>
<path d="" fill="#00FFFF" transform="translate(0,0)"/>
<path d="" fill="#007F7F" transform="translate(0,0)"/>
<path d="" fill="#0000FF" transform="translate(0,0)"/>
<path d="" fill="#007F7F" transform="translate(0,0)"/>
<path d="" fill="#0000FF" transform="translate(0,0)"/>
<path d="" fill="#00FFFF" transform="translate(0,0)"/>
<path d="" fill="#00FFFF" transform="translate(0,0)"/>
<path d="" fill="#007FFF" transform="translate(0,0)"/>
<path d="" fill="#3FBF3F" transform="translate(0,0)"/>
<path d="" fill="#00FF00" transform="translate(0,0)"/>
<path d="" fill="#00AAAA" transform="translate(0,0)"/>
<path d="" fill="#00FF00" transform="translate(0,0)"/>
<path d="" fill="#007FFF" transform="translate(0,0)"/>
<path d="" fill="#00FFFF" transform="translate(0,0)"/>
<path d="" fill="#000000" transform="translate(0,0)"/>
<path d="" fill="#00FF00" transform="translate(0,0)"/>
<path d="" fill="#00FF00" transform="translate(0,0)"/>
<path d="" fill="#007FFF" transform="translate(0,0)"/>
<path d="" fill="#00FFFF" transform="translate(0,0)"/>
<path d="" fill="#00FF00" transform="translate(0,0)"/>
<path d="" fill="#00AAFF" transform="translate(0,0)"/>
<path d="" fill="#00AAFF" transform="translate(0,0)"/>
<path d="" fill="#00FFFF" transform="translate(0,0)"/>
<path d="" fill="#000000" transform="translate(0,0)"/>
<path d="" fill="#00FFFF" transform="translate(0,0)"/>
<path d="" fill="#000000" transform="translate(0,0)"/>
<path d="" fill="#00FFFF" transform="translate(0,0)"/>
<path d="" fill="#000000" transform="translate(0,0)"/>
<path d="" fill="#000000" transform="translate(0,0)"/>
<path d="" fill="#000000" transform="translate(0,0)"/>
<path d="" fill="#000000" transform="translate(0,0)"/>
<path d="" fill="#000000" transform="translate(0,0)"/>
<path d="" fill="#000000" transform="translate(0,0)"/>
<path d="" fill="#000000" transform="translate(0,0)"/>
<path d="" fill="#000000" transform="translate(0,0)"/>
<path d="" fill="#000000" transform="translate(0,0)"/>
<path d="" fill="#000000" transform="translate(0,0)"/>
<path d="" fill="#000000" transform="translate(0,0)"/>
<path d="" fill="#000000" transform="translate(0,0)"/>
<path d="" fill="#000000" transform="translate(0,0)"/>
<path d="" fill="#000000" transform="translate(0,0)"/>
<path d="" fill="#000000" transform="translate(0,0)"/>
<path d="" fill="#000000" transform="translate(0,0)"/>
<path d="" fill="#000000" transform="translate(0,0)"/>
<path d="" fill="#000000" transform="translate(0,0)"/>
<path d="" fill="#000000" transform="translate(0,0)"/>
<path d="" fill="#000000" transform="translate(0,0)"/>
<path d="" fill="#000000" transform="translate(0,0)"/>
<path d="" fill="#000000" transform="translate(0,0)"/>
<path d="" fill="#000000" transform="translate(0,0)"/>
<path d="" fill="#000000" transform="translate(0,0)"/>
<path d="" fill="#000000" transform="translate(0,0)"/>
<path d="" fill="#000000" transform="translate(0,0)"/>
<path d="" fill="#000000" transform="translate(0,0)"/>
<path d="" fill="#000000" transform="translate(0,0)"/>
<path d="" fill="#000000" transform="translate(0,0)"/>
<path d="" fill="#000000" transform="translate(0,0)"/>
<path d="" fill="#000000" transform="translate(0,0)"/>
<path d="" fill="#000000" transform="translate(0,0)"/>
<path d="" fill="#000000" transform="translate(0,0)"/>
<path d="" fill="#000000" transform="translate(0,0)"/>
<path d="" fill="#000000" transform="translate(0,0)"/>
<path d="" fill="#000000" transform="translate(0,0)"/>
<path d="" fill="#000000" transform="translate(0,0)"/>
<path d="" fill="#000000" transform="translate(0,0)"/>
<path d="" fill="#000000" transform="translate(0,0)"/>
<path d="" fill="#000000" transform="translate(0,0)"/>
<path d="" fill="#000000" transform="translate(0,0)"/>
<path d="" fill="#000000" transform="translate(0,0)"/>
<path d="" fill="#000000" transform="translate(0,0)"/>
<path d="" fill="#000000" transform="translate(0,0)"/>
<path d="" fill="#000000" transform="translate(0,0)"/>
<path d="" fill="#000000" transform="translate(0,0)"/>
<path d="" fill="#000000" transform="translate(0,0)"/>
<path d="" fill="#000000" transform="translate(0,0)"/>
<path d="" fill="#000000" transform="translate(0,0)"/>
<path d="" fill="#7F7F7F" transform="translate(0,0)"/>
<path d="" fill="#000000" transform="translate(0,0)"/>
<path d="" fill="#000000" transform="translate(0,0)"/>
<path d="" fill="#000000" transform="translate(0,0)"/>
<path d="" fill="#000000" transform="translate(0,0)"/>
<path d="" fill="#000000" transform="translate(0,0)"/>
<path d="" fill="#000000" transform="translate(0,0)"/>
<path d="" fill="#000000" transform="translate(0,0)"/>
<path d="" fill="#000000" transform="translate(0,0)"/>
<path d="" fill="#000000" transform="translate(0,0)"/>
<path d="" fill="#000000" transform="translate(0,0)"/>
<path d="" fill="#000000" transform="translate(0,0)"/>
<path d="" fill="#000000" transform="translate(0,0)"/>
<path d="" fill="#000000" transform="translate(0,0)"/>
<path d="" fill="#000000" transform="translate(0,0)"/>
<path d="" fill="#7F7F7F" transform="translate(0,0)"/>
<path d="" fill="#000000" transform="translate(0,0)"/>
<path d="" fill="#000000" transform="translate(0,0)"/>
<path d="" fill="#000000" transform="translate(0,0)"/>
<path d="" fill="#000000" transform="translate(0,0)"/>
<path d="" fill="#7F7F7F" transform="translate(0,0)"/>
<path d="" fill="#000000" transform="translate(0,0)"/>
<path d="" fill="#000000" transform="translate(0,0)"/>
<path d="" fill="#7F7F7F" transform="translate(0,0)"/>
<path d="" fill="#000000" transform="translate(0,0)"/>
<path d="" fill="#000000" transform="translate(0,0)"/>
<path d="" fill="#000000" transform="translate(0,0)"/>
<path d="" fill="#000000" transform="translate(0,0)"/>
<path d="" fill="#000000" transform="translate(0,0)"/>
<path d="" fill="#000000" transform="translate(0,0)"/>
<path d="" fill="#000000" transform="translate(0,0)"/>
<path d="" fill="#000000" transform="translate(0,0)"/>
<path d="" fill="#000000" transform="translate(0,0)"/>
<path d="" fill="#7F7F7F" transform="translate(0,0)"/>
<path d="" fill="#000000" transform="translate(0,0)"/>
<path d="" fill="#000000" transform="translate(0,0)"/>
</svg>
